<?xml version="1.0" encoding="utf-8"?>
<!-- Generator: Adobe Illustrator 24.1.2, SVG Export Plug-In . SVG Version: 6.00 Build 0)  -->
<svg version="1.1" id="Layer_1" xmlns="http://www.w3.org/2000/svg" xmlns:xlink="http://www.w3.org/1999/xlink" x="0px" y="0px"
	 viewBox="0 0 100 100" style="enable-background:new 0 0 100 100;" xml:space="preserve">
<style type="text/css">
	.st0{fill:#580C1B;stroke:#1E0D1C;stroke-width:9;stroke-miterlimit:10;}
	.st1{fill:#FDF8C0;}
</style>
<path class="st0" d="M25.53,55.74c0,0,1.31-13.8,12.74-18.32s19.91,0.41,19.91,0.41c6.97,4.14,10.48,10.22,11.52,17.69L25.53,55.74z
	"/>
<g>
	<path class="st1" d="M35.59,44.08v2.83h2.97v-2.83h0.8v6.76h-0.8v-3.17h-2.97v3.17h-0.79v-6.76H35.59z"/>
	<path class="st1" d="M41.54,44.08v6.76h-0.79v-6.76H41.54z"/>
	<path class="st1" d="M44.09,44.83h-1.87v-0.74h4.55v0.74h-1.88v6.02h-0.8V44.83z"/>
	<path class="st1" d="M50.64,47.67h-2.39v2.44h2.66v0.73h-3.46v-6.76h3.32v0.73h-2.53v2.14h2.39V47.67z"/>
	<path class="st1" d="M56.24,50.62c-0.29,0.16-0.88,0.32-1.62,0.32c-1.73,0-3.04-1.2-3.04-3.42c0-2.12,1.31-3.55,3.21-3.55
		c0.77,0,1.25,0.18,1.46,0.3l-0.19,0.71c-0.3-0.16-0.73-0.28-1.24-0.28c-1.44,0-2.4,1.01-2.4,2.79c0,1.65,0.87,2.72,2.36,2.72
		c0.48,0,0.98-0.11,1.3-0.28L56.24,50.62z"/>
	<path class="st1" d="M58.03,44.08v2.83H61v-2.83h0.8v6.76H61v-3.17h-2.97v3.17h-0.79v-6.76H58.03z"/>
</g>
<g>
</g>
<g>
</g>
<g>
</g>
<g>
</g>
<g>
</g>
<g>
</g>
</svg>
